<mxfile host="app.diagrams.net" modified="2024-04-17T09:15:48.337Z" agent="Mozilla/5.0 (Windows NT 10.0; Win64; x64) AppleWebKit/537.36 (KHTML, like Gecko) Chrome/123.0.0.0 Safari/537.36 Edg/123.0.0.0" etag="_1IWrxGsZ5CJKDGlKx1m" version="24.1.0" type="github">
  <diagram id="C5RBs43oDa-KdzZeNtuy" name="Page-1">
    <mxGraphModel dx="1329" dy="2433" grid="1" gridSize="10" guides="1" tooltips="1" connect="1" arrows="1" fold="1" page="1" pageScale="1" pageWidth="827" pageHeight="1169" math="0" shadow="0">
      <root>
        <mxCell id="WIyWlLk6GJQsqaUBKTNV-0" />
        <mxCell id="WIyWlLk6GJQsqaUBKTNV-1" parent="WIyWlLk6GJQsqaUBKTNV-0" />
        <mxCell id="TGmIxjUz7--rkQjKRKow-6" style="rounded=0;orthogonalLoop=1;jettySize=auto;html=1;" edge="1" parent="WIyWlLk6GJQsqaUBKTNV-1" source="TGmIxjUz7--rkQjKRKow-0" target="TGmIxjUz7--rkQjKRKow-4">
          <mxGeometry relative="1" as="geometry" />
        </mxCell>
        <mxCell id="TGmIxjUz7--rkQjKRKow-8" style="rounded=0;orthogonalLoop=1;jettySize=auto;html=1;" edge="1" parent="WIyWlLk6GJQsqaUBKTNV-1" source="TGmIxjUz7--rkQjKRKow-0" target="TGmIxjUz7--rkQjKRKow-7">
          <mxGeometry relative="1" as="geometry" />
        </mxCell>
        <mxCell id="TGmIxjUz7--rkQjKRKow-10" style="rounded=0;orthogonalLoop=1;jettySize=auto;html=1;" edge="1" parent="WIyWlLk6GJQsqaUBKTNV-1" source="TGmIxjUz7--rkQjKRKow-0" target="TGmIxjUz7--rkQjKRKow-9">
          <mxGeometry relative="1" as="geometry" />
        </mxCell>
        <mxCell id="TGmIxjUz7--rkQjKRKow-12" style="rounded=0;orthogonalLoop=1;jettySize=auto;html=1;" edge="1" parent="WIyWlLk6GJQsqaUBKTNV-1" source="TGmIxjUz7--rkQjKRKow-0" target="TGmIxjUz7--rkQjKRKow-11">
          <mxGeometry relative="1" as="geometry" />
        </mxCell>
        <mxCell id="TGmIxjUz7--rkQjKRKow-37" style="rounded=0;orthogonalLoop=1;jettySize=auto;html=1;" edge="1" parent="WIyWlLk6GJQsqaUBKTNV-1" source="TGmIxjUz7--rkQjKRKow-0" target="TGmIxjUz7--rkQjKRKow-36">
          <mxGeometry relative="1" as="geometry" />
        </mxCell>
        <mxCell id="TGmIxjUz7--rkQjKRKow-48" style="rounded=0;orthogonalLoop=1;jettySize=auto;html=1;" edge="1" parent="WIyWlLk6GJQsqaUBKTNV-1" source="TGmIxjUz7--rkQjKRKow-0" target="TGmIxjUz7--rkQjKRKow-42">
          <mxGeometry relative="1" as="geometry" />
        </mxCell>
        <mxCell id="TGmIxjUz7--rkQjKRKow-0" value="Mahasiswa" style="shape=umlActor;verticalLabelPosition=bottom;verticalAlign=top;html=1;outlineConnect=0;" vertex="1" parent="WIyWlLk6GJQsqaUBKTNV-1">
          <mxGeometry x="170" y="210" width="30" height="60" as="geometry" />
        </mxCell>
        <mxCell id="TGmIxjUz7--rkQjKRKow-18" style="rounded=0;orthogonalLoop=1;jettySize=auto;html=1;" edge="1" parent="WIyWlLk6GJQsqaUBKTNV-1" source="TGmIxjUz7--rkQjKRKow-1" target="TGmIxjUz7--rkQjKRKow-17">
          <mxGeometry relative="1" as="geometry" />
        </mxCell>
        <mxCell id="TGmIxjUz7--rkQjKRKow-22" style="rounded=0;orthogonalLoop=1;jettySize=auto;html=1;" edge="1" parent="WIyWlLk6GJQsqaUBKTNV-1" source="TGmIxjUz7--rkQjKRKow-1" target="TGmIxjUz7--rkQjKRKow-20">
          <mxGeometry relative="1" as="geometry" />
        </mxCell>
        <mxCell id="TGmIxjUz7--rkQjKRKow-33" style="edgeStyle=orthogonalEdgeStyle;rounded=0;orthogonalLoop=1;jettySize=auto;html=1;" edge="1" parent="WIyWlLk6GJQsqaUBKTNV-1" source="TGmIxjUz7--rkQjKRKow-1" target="TGmIxjUz7--rkQjKRKow-32">
          <mxGeometry relative="1" as="geometry" />
        </mxCell>
        <mxCell id="TGmIxjUz7--rkQjKRKow-39" style="rounded=0;orthogonalLoop=1;jettySize=auto;html=1;" edge="1" parent="WIyWlLk6GJQsqaUBKTNV-1" source="TGmIxjUz7--rkQjKRKow-1" target="TGmIxjUz7--rkQjKRKow-38">
          <mxGeometry relative="1" as="geometry" />
        </mxCell>
        <mxCell id="TGmIxjUz7--rkQjKRKow-44" style="rounded=0;orthogonalLoop=1;jettySize=auto;html=1;" edge="1" parent="WIyWlLk6GJQsqaUBKTNV-1" source="TGmIxjUz7--rkQjKRKow-1" target="TGmIxjUz7--rkQjKRKow-43">
          <mxGeometry relative="1" as="geometry" />
        </mxCell>
        <mxCell id="TGmIxjUz7--rkQjKRKow-1" value="Admin" style="shape=umlActor;verticalLabelPosition=bottom;verticalAlign=top;html=1;outlineConnect=0;" vertex="1" parent="WIyWlLk6GJQsqaUBKTNV-1">
          <mxGeometry x="740" y="120" width="30" height="60" as="geometry" />
        </mxCell>
        <mxCell id="TGmIxjUz7--rkQjKRKow-16" style="rounded=0;orthogonalLoop=1;jettySize=auto;html=1;" edge="1" parent="WIyWlLk6GJQsqaUBKTNV-1" source="TGmIxjUz7--rkQjKRKow-1" target="TGmIxjUz7--rkQjKRKow-15">
          <mxGeometry relative="1" as="geometry" />
        </mxCell>
        <mxCell id="TGmIxjUz7--rkQjKRKow-31" style="rounded=0;orthogonalLoop=1;jettySize=auto;html=1;" edge="1" parent="WIyWlLk6GJQsqaUBKTNV-1" source="TGmIxjUz7--rkQjKRKow-2" target="TGmIxjUz7--rkQjKRKow-4">
          <mxGeometry relative="1" as="geometry" />
        </mxCell>
        <mxCell id="TGmIxjUz7--rkQjKRKow-41" style="rounded=0;orthogonalLoop=1;jettySize=auto;html=1;" edge="1" parent="WIyWlLk6GJQsqaUBKTNV-1" source="TGmIxjUz7--rkQjKRKow-2" target="TGmIxjUz7--rkQjKRKow-38">
          <mxGeometry relative="1" as="geometry" />
        </mxCell>
        <mxCell id="TGmIxjUz7--rkQjKRKow-2" value="Dosen" style="shape=umlActor;verticalLabelPosition=bottom;verticalAlign=top;html=1;outlineConnect=0;" vertex="1" parent="WIyWlLk6GJQsqaUBKTNV-1">
          <mxGeometry x="740" y="525" width="30" height="60" as="geometry" />
        </mxCell>
        <mxCell id="TGmIxjUz7--rkQjKRKow-4" value="Melihat jadwal perkuliahan" style="ellipse;whiteSpace=wrap;html=1;" vertex="1" parent="WIyWlLk6GJQsqaUBKTNV-1">
          <mxGeometry x="470" y="410" width="125" height="50" as="geometry" />
        </mxCell>
        <mxCell id="TGmIxjUz7--rkQjKRKow-7" value="Cetak KRS" style="ellipse;whiteSpace=wrap;html=1;" vertex="1" parent="WIyWlLk6GJQsqaUBKTNV-1">
          <mxGeometry x="270" y="60" width="125" height="50" as="geometry" />
        </mxCell>
        <mxCell id="TGmIxjUz7--rkQjKRKow-9" value="Melihat Nilai Mahasiswa" style="ellipse;whiteSpace=wrap;html=1;" vertex="1" parent="WIyWlLk6GJQsqaUBKTNV-1">
          <mxGeometry x="210" y="-10" width="125" height="50" as="geometry" />
        </mxCell>
        <mxCell id="TGmIxjUz7--rkQjKRKow-11" value="Kelola General" style="ellipse;whiteSpace=wrap;html=1;" vertex="1" parent="WIyWlLk6GJQsqaUBKTNV-1">
          <mxGeometry x="289" y="150" width="125" height="50" as="geometry" />
        </mxCell>
        <mxCell id="TGmIxjUz7--rkQjKRKow-15" value="Kelola Nilai Mahasiswa" style="ellipse;whiteSpace=wrap;html=1;" vertex="1" parent="WIyWlLk6GJQsqaUBKTNV-1">
          <mxGeometry x="575" y="-10" width="125" height="50" as="geometry" />
        </mxCell>
        <mxCell id="TGmIxjUz7--rkQjKRKow-17" value="Kelola Jadwal" style="ellipse;whiteSpace=wrap;html=1;" vertex="1" parent="WIyWlLk6GJQsqaUBKTNV-1">
          <mxGeometry x="450" y="320" width="125" height="50" as="geometry" />
        </mxCell>
        <mxCell id="TGmIxjUz7--rkQjKRKow-20" value="Verifikasi KRS" style="ellipse;whiteSpace=wrap;html=1;" vertex="1" parent="WIyWlLk6GJQsqaUBKTNV-1">
          <mxGeometry x="505" y="60" width="125" height="50" as="geometry" />
        </mxCell>
        <mxCell id="TGmIxjUz7--rkQjKRKow-29" value="" style="endArrow=classic;html=1;rounded=0;dashed=1;" edge="1" parent="WIyWlLk6GJQsqaUBKTNV-1" source="TGmIxjUz7--rkQjKRKow-7" target="TGmIxjUz7--rkQjKRKow-20">
          <mxGeometry relative="1" as="geometry">
            <mxPoint x="405" y="148.89" as="sourcePoint" />
            <mxPoint x="505" y="148.89" as="targetPoint" />
          </mxGeometry>
        </mxCell>
        <mxCell id="TGmIxjUz7--rkQjKRKow-30" value="Extend" style="edgeLabel;resizable=0;html=1;;align=center;verticalAlign=middle;" connectable="0" vertex="1" parent="TGmIxjUz7--rkQjKRKow-29">
          <mxGeometry relative="1" as="geometry" />
        </mxCell>
        <mxCell id="TGmIxjUz7--rkQjKRKow-32" value="Verifikasi General" style="ellipse;whiteSpace=wrap;html=1;" vertex="1" parent="WIyWlLk6GJQsqaUBKTNV-1">
          <mxGeometry x="505" y="125" width="125" height="50" as="geometry" />
        </mxCell>
        <mxCell id="TGmIxjUz7--rkQjKRKow-34" value="" style="endArrow=classic;html=1;rounded=0;dashed=1;" edge="1" parent="WIyWlLk6GJQsqaUBKTNV-1" source="TGmIxjUz7--rkQjKRKow-11" target="TGmIxjUz7--rkQjKRKow-32">
          <mxGeometry relative="1" as="geometry">
            <mxPoint x="424" y="102" as="sourcePoint" />
            <mxPoint x="515" y="98" as="targetPoint" />
          </mxGeometry>
        </mxCell>
        <mxCell id="TGmIxjUz7--rkQjKRKow-35" value="Extend" style="edgeLabel;resizable=0;html=1;;align=center;verticalAlign=middle;" connectable="0" vertex="1" parent="TGmIxjUz7--rkQjKRKow-34">
          <mxGeometry relative="1" as="geometry" />
        </mxCell>
        <mxCell id="TGmIxjUz7--rkQjKRKow-36" value="Melihat Presensi" style="ellipse;whiteSpace=wrap;html=1;" vertex="1" parent="WIyWlLk6GJQsqaUBKTNV-1">
          <mxGeometry x="440" y="475" width="125" height="50" as="geometry" />
        </mxCell>
        <mxCell id="TGmIxjUz7--rkQjKRKow-38" value="Kelola Absensi" style="ellipse;whiteSpace=wrap;html=1;" vertex="1" parent="WIyWlLk6GJQsqaUBKTNV-1">
          <mxGeometry x="575" y="350" width="125" height="50" as="geometry" />
        </mxCell>
        <mxCell id="TGmIxjUz7--rkQjKRKow-42" value="Kelola UKT" style="ellipse;whiteSpace=wrap;html=1;" vertex="1" parent="WIyWlLk6GJQsqaUBKTNV-1">
          <mxGeometry x="300" y="220" width="125" height="50" as="geometry" />
        </mxCell>
        <mxCell id="TGmIxjUz7--rkQjKRKow-43" value="Verifikasi UKT" style="ellipse;whiteSpace=wrap;html=1;" vertex="1" parent="WIyWlLk6GJQsqaUBKTNV-1">
          <mxGeometry x="480" y="200" width="125" height="50" as="geometry" />
        </mxCell>
        <mxCell id="TGmIxjUz7--rkQjKRKow-46" value="" style="endArrow=classic;html=1;rounded=0;dashed=1;" edge="1" parent="WIyWlLk6GJQsqaUBKTNV-1" source="TGmIxjUz7--rkQjKRKow-42" target="TGmIxjUz7--rkQjKRKow-43">
          <mxGeometry relative="1" as="geometry">
            <mxPoint x="422" y="178" as="sourcePoint" />
            <mxPoint x="517" y="167" as="targetPoint" />
          </mxGeometry>
        </mxCell>
        <mxCell id="TGmIxjUz7--rkQjKRKow-47" value="Extend" style="edgeLabel;resizable=0;html=1;;align=center;verticalAlign=middle;" connectable="0" vertex="1" parent="TGmIxjUz7--rkQjKRKow-46">
          <mxGeometry relative="1" as="geometry" />
        </mxCell>
        <mxCell id="TGmIxjUz7--rkQjKRKow-50" value="" style="endArrow=classic;html=1;rounded=0;dashed=1;" edge="1" parent="WIyWlLk6GJQsqaUBKTNV-1" source="TGmIxjUz7--rkQjKRKow-4" target="TGmIxjUz7--rkQjKRKow-17">
          <mxGeometry relative="1" as="geometry">
            <mxPoint x="422" y="178" as="sourcePoint" />
            <mxPoint x="517" y="167" as="targetPoint" />
          </mxGeometry>
        </mxCell>
        <mxCell id="TGmIxjUz7--rkQjKRKow-51" value="Extend" style="edgeLabel;resizable=0;html=1;;align=center;verticalAlign=middle;" connectable="0" vertex="1" parent="TGmIxjUz7--rkQjKRKow-50">
          <mxGeometry relative="1" as="geometry" />
        </mxCell>
        <mxCell id="TGmIxjUz7--rkQjKRKow-52" value="" style="endArrow=classic;html=1;rounded=0;dashed=1;" edge="1" parent="WIyWlLk6GJQsqaUBKTNV-1" source="TGmIxjUz7--rkQjKRKow-9" target="TGmIxjUz7--rkQjKRKow-15">
          <mxGeometry relative="1" as="geometry">
            <mxPoint x="422" y="178" as="sourcePoint" />
            <mxPoint x="480" y="630" as="targetPoint" />
          </mxGeometry>
        </mxCell>
        <mxCell id="TGmIxjUz7--rkQjKRKow-53" value="Extend" style="edgeLabel;resizable=0;html=1;;align=center;verticalAlign=middle;" connectable="0" vertex="1" parent="TGmIxjUz7--rkQjKRKow-52">
          <mxGeometry relative="1" as="geometry" />
        </mxCell>
      </root>
    </mxGraphModel>
  </diagram>
</mxfile>
